<svg height="512" viewBox="0 0 64 64" width="512" xmlns="http://www.w3.org/2000/svg"><path d="M16 56h32c4.411 0 8-3.589 8-8V16c0-4.411-3.589-8-8-8H16c-4.411 0-8 3.589-8 8v8a2 2 0 0 0 4 0v-8c0-2.206 1.794-4 4-4h32c2.206 0 4 1.794 4 4v32c0 2.206-1.794 4-4 4H16c-2.206 0-4-1.794-4-4v-8a2 2 0 0 0-4 0v8c0 4.411 3.589 8 8 8z" fill="#666235"/><path d="M16 32a2 2 0 0 0 2 2h23.172l-4.586 4.586a2 2 0 1 0 2.828 2.828l8-8a2 2 0 0 0 0-2.828l-8-8a2 2 0 1 0-2.828 2.828L41.172 30H18a2 2 0 0 0-2 2z" fill="#666235"/></svg>