<svg width="0" height="0" class="hidden">
    <symbol fill="none" xmlns="http://www.w3.org/2000/svg" viewBox="0 0 70 70" id="cart">
        <path d="M35 69.1797C53.8769 69.1797 69.1797 53.8769 69.1797 35C69.1797 16.1231 53.8769 0.820312 35 0.820312C16.1231 0.820312 0.820312 16.1231 0.820312 35C0.820312 53.8769 16.1231 69.1797 35 69.1797Z" fill="#ECAF7B"></path>
        <path d="M41.5608 51.5428C42.2492 51.5428 42.8072 50.9847 42.8072 50.2964C42.8072 49.608 42.2492 49.05 41.5608 49.05C40.8725 49.05 40.3144 49.608 40.3144 50.2964C40.3144 50.9847 40.8725 51.5428 41.5608 51.5428Z" fill="white"></path>
        <path d="M31.3464 51.5428C32.0348 51.5428 32.5928 50.9847 32.5928 50.2964C32.5928 49.608 32.0348 49.05 31.3464 49.05C30.658 49.05 30.1 49.608 30.1 50.2964C30.1 50.9847 30.658 51.5428 31.3464 51.5428Z" fill="white"></path>
        <path d="M41.5608 47.3476C39.9496 47.3476 38.6424 48.67 38.6424 50.2812C38.6424 51.9076 39.9496 53.2148 41.5608 53.2148C43.172 53.2148 44.4792 51.8924 44.4792 50.2812C44.4944 48.67 43.1872 47.3476 41.5608 47.3476ZM41.5608 51.5428C40.8768 51.5428 40.3144 50.9804 40.3144 50.2964C40.3144 49.5972 40.8768 49.05 41.5608 49.05C42.26 49.05 42.8072 49.6124 42.8072 50.2964C42.8072 50.9804 42.26 51.5428 41.5608 51.5428Z" fill="white"></path>
        <path d="M31.3464 47.3476C29.7352 47.3476 28.428 48.67 28.428 50.2812C28.428 51.9076 29.7352 53.2148 31.3464 53.2148C32.9576 53.2148 34.2648 51.8924 34.2648 50.2812C34.2648 48.67 32.9576 47.3476 31.3464 47.3476ZM31.3464 51.5428C30.6624 51.5428 30.1 50.9804 30.1 50.2964C30.1 49.5972 30.6624 49.05 31.3464 49.05C32.0304 49.05 32.5928 49.6124 32.5928 50.2964C32.5928 50.9804 32.0304 51.5428 31.3464 51.5428Z" fill="white"></path>
        <path d="M24.6128 28.1652L22.6216 22.0092L22.5456 22.0396V21.918H13V24.8516H20.4328L22.7128 31.0076L27.6224 45.8124H45.1632L51 28.0892L24.6128 28.1652Z" fill="white"></path>
    </symbol>
    <symbol fill="none" xmlns="http://www.w3.org/2000/svg" viewBox="0 0 70 70" id="home">
        <path d="M35 69.65C54.1367 69.65 69.65 54.1367 69.65 35C69.65 15.8633 54.1367 0.350006 35 0.350006C15.8633 0.350006 0.350006 15.8633 0.350006 35C0.350006 54.1367 15.8633 69.65 35 69.65Z" fill="#ECAF7B"></path>
        <path d="M25.2506 38.8034C25.2574 38.8101 25.2628 38.817 25.2696 38.8237C25.2628 38.8276 25.2574 38.8304 25.2506 38.8345C25.2439 38.8276 25.2384 38.8209 25.2316 38.8141C25.2384 38.8116 25.2439 38.8075 25.2506 38.8034Z" fill="white"></path>
        <path d="M44.7724 38.8089C44.7657 38.8169 44.7575 38.8265 44.7494 38.8346C44.7414 38.8291 44.7331 38.825 44.7251 38.821C44.7331 38.813 44.7414 38.8034 44.7494 38.7953C44.7575 38.7993 44.7643 38.8048 44.7724 38.8089Z" fill="white"></path>
        <path d="M46.2662 50.3232H23.7338C22.8264 50.3232 22.0909 49.5876 22.0909 48.6802V32.1788H47.909V48.6802C47.9091 49.5876 47.1734 50.3232 46.2662 50.3232Z" fill="white"></path>
        <path d="M51.1905 34.5278C51.8759 35.2132 51.3859 36.3847 50.4167 36.3782L35.1214 36.2747L19.776 36.1709C18.8139 36.1643 18.3366 35.0009 19.0169 34.3206L34.2336 19.1037C34.6568 18.6805 35.3432 18.6805 35.7664 19.1037L51.1905 34.5278Z" fill="white"></path>
        <path d="M37.5655 38.582H32.4345C31.1598 38.582 30.1267 39.6152 30.1267 40.8898V50.3858H39.8732V40.8898C39.8733 39.6152 38.84 38.582 37.5655 38.582Z" fill="#ECAF7B"></path>
    </symbol>
    <symbol fill="none" xmlns="http://www.w3.org/2000/svg" viewBox="0 0 40 40" id="arrow">
        <path d="M29.1014 18.0782L14.1008 5.57763C13.5908 5.15581 12.9345 4.95327 12.2756 5.01434C11.6166 5.07542 11.0087 5.39514 10.5849 5.90349C10.1612 6.41184 9.95619 7.06739 10.0148 7.72659C10.0734 8.38578 10.3908 8.9949 10.8975 9.42054L23.5934 19.9997L10.8975 30.5789C10.3888 31.0039 10.0697 31.6135 10.0101 32.2738C9.95058 32.934 10.1555 33.5909 10.58 34.1001C11.0044 34.6093 11.6136 34.9292 12.2738 34.9895C12.934 35.0498 13.5911 34.8457 14.1008 34.4218L29.1014 21.9211C29.3827 21.6861 29.6089 21.3922 29.7642 21.0602C29.9195 20.7282 29.9999 20.3661 29.9999 19.9996C29.9999 19.6331 29.9195 19.2711 29.7642 18.939C29.6089 18.607 29.3827 18.3132 29.1014 18.0782Z" fill="#ECAF7B"></path>
    </symbol>
    <symbol fill="none" xmlns="http://www.w3.org/2000/svg" viewBox="0 0 35 35" id="price">
        <path d="M17.5 4.99634C10.605 4.99634 4.99634 10.6058 4.99634 17.5004C4.99634 24.3951 10.605 30.0037 17.5 30.0037C24.3947 30.0037 30.0037 24.3951 30.0037 17.5004C30.0037 10.6058 24.3947 4.99634 17.5 4.99634ZM17.5 28.0314C11.6928 28.0314 6.96857 23.3072 6.96857 17.5004C6.96857 11.6928 11.6928 6.96857 17.5 6.96857C23.3072 6.96857 28.0315 11.6928 28.0315 17.5004C28.0315 23.3072 23.3072 28.0314 17.5 28.0314Z" fill="#8C5120"></path>
        <path d="M15.5228 15.0498C15.5228 14.2587 16.6797 14.1236 17.6833 14.1236C18.6292 14.1236 19.9217 14.5669 21.0024 15.1272L21.2142 12.9469C20.6737 12.6379 19.4199 12.2712 18.1464 12.1946L18.455 9.97559H16.3905L16.6996 12.1946C14.0372 12.4451 13.1687 13.9885 13.1687 15.2813C13.1687 18.5418 19.2457 17.848 19.2457 19.8537C19.2457 20.6068 18.5325 20.8763 17.278 20.8763C15.5805 20.8763 14.3066 20.2788 13.6511 19.6609L13.3228 22.1115C13.9408 22.4782 15.1942 22.8061 16.6996 22.8835L16.3905 25.0252H18.455L18.1464 22.8639C21.2719 22.5936 21.8314 20.9341 21.8314 19.8348C21.8314 15.957 15.5228 16.9211 15.5228 15.0498Z" fill="#8C5120"></path>
    </symbol>
    <symbol fill="none" xmlns="http://www.w3.org/2000/svg" viewBox="0 0 55 35" id="addToCart">
        <rect width="55" height="35" rx="5" fill="#ECAF7B"></rect>
        <path d="M33.5481 29.388C34.0915 29.388 34.5321 28.9475 34.5321 28.404C34.5321 27.8606 34.0915 27.42 33.5481 27.42C33.0046 27.42 32.5641 27.8606 32.5641 28.404C32.5641 28.9475 33.0046 29.388 33.5481 29.388Z" fill="white"></path>
        <path d="M25.484 29.388C26.0274 29.388 26.468 28.9475 26.468 28.404C26.468 27.8606 26.0274 27.42 25.484 27.42C24.9406 27.42 24.5 27.8606 24.5 28.404C24.5 28.9475 24.9406 29.388 25.484 29.388Z" fill="white"></path>
        <path d="M33.5481 26.0759C32.2761 26.0759 31.2441 27.1199 31.2441 28.3919C31.2441 29.6759 32.2761 30.7079 33.5481 30.7079C34.8201 30.7079 35.8521 29.6639 35.8521 28.3919C35.8641 27.1199 34.8321 26.0759 33.5481 26.0759ZM33.5481 29.3879C33.0081 29.3879 32.5641 28.9439 32.5641 28.4039C32.5641 27.8519 33.0081 27.4199 33.5481 27.4199C34.1001 27.4199 34.5321 27.8639 34.5321 28.4039C34.5321 28.9439 34.1001 29.3879 33.5481 29.3879Z" fill="white"></path>
        <path d="M25.4841 26.0759C24.2121 26.0759 23.1801 27.1199 23.1801 28.3919C23.1801 29.6759 24.2121 30.7079 25.4841 30.7079C26.7561 30.7079 27.7881 29.6639 27.7881 28.3919C27.7881 27.1199 26.7561 26.0759 25.4841 26.0759ZM25.4841 29.3879C24.9441 29.3879 24.5001 28.9439 24.5001 28.4039C24.5001 27.8519 24.9441 27.4199 25.4841 27.4199C26.0241 27.4199 26.4681 27.8639 26.4681 28.4039C26.4681 28.9439 26.0241 29.3879 25.4841 29.3879Z" fill="white"></path>
        <path d="M20.168 10.932L18.596 6.072L18.536 6.096V6H11V8.316H16.868L18.668 13.176L22.544 24.864H36.392L41 10.872L20.168 10.932Z" fill="white"></path>
    </symbol>
</svg>